# xmcd CD database file
#
# Track frame offsets:
#	150
#	10530
#	25761
#	42663
#
# Disc length: 733 seconds
#
# Revision: 0
# Processed by: cddbd v1.5.1PL2 Copyright (c) Steve Scherf et al.
# Submitted via: CDex 1.50
#
DISCID=2402db04
DTITLE=Harmonators - The Harmonators
DYEAR=2006
DGENRE=Country
TTITLE0=I Forget
TTITLE1=Wish I Didn't
TTITLE2=Without You
TTITLE3=When Will I Be Loved
EXTD=YEAR: 2006
EXTT0=
EXTT1=
EXTT2=
EXTT3=
PLAYORDER=
